Patient4_TMGait_0pt5_01_left_31_EMG.mot
version=1
nRows=40
nColumns=33
inDegrees=no
endheader
time	1LAddLong	2LGlutMax	3LGlutMed	4LIliopsoas	5LSemiMemb	6LBicFemLong	7LRecFem	8LVastMed	9LVastLat	10LGasMed	11LTibAnt	12lTibPost	13LPeroneusLong	14LSol	15LExtDigLong	16LFlexDigLong	17RAddLong	18RGlutMax	19RGlutMed	20RIliopsoas	21RSemiMemb	22RBicFemLong	23RRecFem	24RVastMed	25RVastLat	26RGasMed	27RTibAnt	28RTibPost	29RPeroneusLong	30RSol	31RExtDigLong	32RFlexDigLong
41.837	0.003815	-1.1142	0.019836	0.000916	-0.084839	0.018005	0.68039	0.010681	0.008087	0.34836	0.007629	-0.000153	0.12909	-0.17441	0.02655	-0.004272	0.13443	0.53375	-0.20172	0.061035	-0.25879	0.00885	0.3447	-0.088348	-0.017242	0.043488	0.071869	-0.24536	0.19379	0.27557	-0.001526	-0.003967
41.838	-0.003815	-1.1284	0.025787	-0.006714	-0.074615	0.051422	0.62546	0.019836	-0.019379	0.38498	0.011139	0.013733	0.50018	0.02533	0.06546	0.003815	0.11688	0.52795	-0.14923	0.088196	-0.20371	0.001831	0.41946	-0.13107	-0.088501	0.059204	0.097351	0.52719	0.11444	0.12756	-0.000458	-0.018311
41.839	-0.011444	-1.0867	-0.000916	-0.003052	-0.063934	0.097961	0.63202	0.01297	-0.030518	0.16144	-0.00824	0.014343	0.7576	0.13733	0.046234	0.006104	0.064392	0.4715	-0.12238	0.1355	0.068817	-0.00946	0.29938	-0.17853	-0.11597	0.053253	0.11078	0.34515	-0.47287	-0.40832	0.001221	-0.027008
41.84	-0.024567	-1.0204	0.009918	-0.007629	-0.052948	0.14343	0.6105	0.013123	-0.067902	-0.56381	-0.005035	0.01236	0.39902	0.24658	0.012207	0.015717	0.061493	0.54611	-0.13382	0.07843	0.1976	-0.033875	0.22553	-0.13046	-0.072174	0.057983	0.10986	-0.015411	-1.1638	-1.1603	-0.001221	-0.019226
41.841	-0.016327	-0.93231	-0.007172	0.013275	-0.10193	0.20783	0.60883	0.022278	-0.16876	-0.67032	0.020142	0.010223	-0.50613	0.29556	0.009766	0.003357	0.055695	0.62531	-0.38956	-0.023193	0.07843	-0.045013	0.055695	-0.031586	0.12528	0.046234	0.086823	-0.38895	-1.1604	-2.133	-0.00473	-0.014191
41.842	0.002289	-0.82031	0.022736	0.010529	-0.13184	0.19226	0.5867	0.018921	-0.18631	-0.74616	0.018005	-0.007782	-0.095367	0.26566	-0.014038	0.016327	0.049744	0.60608	-0.41946	-0.010986	0.002899	-0.081787	-0.013885	-0.004272	0.079041	-0.001984	0.024719	0.08316	-0.19562	-2.4597	0.002289	-0.018158
41.843	-0.001373	-0.70984	0.02121	0.012817	-0.19623	0.1442	0.56427	0.020142	-0.15884	-0.35065	0.012054	0.006409	0.39185	0.098267	-0.026093	0.041962	0.045319	0.54718	-0.20584	0.042419	0.038605	-0.070496	-0.013885	-0.012512	0.19287	-0.033875	-0.042725	0.077362	0.18005	-1.6757	0.001831	-0.014038
41.844	-0.001373	-0.57663	-0.028992	-0.010986	-0.12512	0.10239	0.53451	0.050049	-0.16373	0.073395	-0.007019	0.000763	0.061188	-0.22553	-0.047607	0.023193	0.031586	0.59998	-0.35858	0.059814	0.036774	-0.083618	-0.030212	0.15228	0.3241	-0.07019	-0.030518	-0.09964	0.075073	-0.56137	-0.001068	-0.009918
41.845	0.01297	-0.44159	0.010834	-0.00946	-0.094147	0.11032	0.52506	0.014038	-0.17212	0.1384	0.02594	-0.007477	-0.27649	-0.29541	-0.017395	0.018921	-0.003204	0.70831	-0.66925	0.018616	-0.002899	-0.051575	-0.021515	0.22934	0.39383	-0.04425	0.020905	-0.63965	-0.42725	1.2418	-0.003052	-0.006256
41.846	0.010681	-0.31815	0.015259	-0.002747	-0.021667	0.06424	0.53055	0.013275	-0.18326	0.094604	0.032501	-0.002289	-0.34668	-0.38956	0.046692	0.001526	-0.017395	0.70801	-0.76172	-0.054321	-0.038147	-0.005646	0.15411	0.1973	0.25787	0.020752	-0.002289	-0.63797	0.26627	1.1412	0.002747	0.001068
41.847	0.001678	-0.18677	-0.005341	-0.001068	0.10468	-0.20462	0.52734	0.019073	-0.20721	0.018005	0.028381	-0.005035	-0.6459	-0.44891	0.094299	0.0177	-0.033569	0.61706	-0.27313	-0.097351	-0.037537	0.021667	0.336	0.00473	0.14893	-0.011902	0.014648	0.60303	0.3569	0.38116	-0.000458	-0.009155
41.848	-0.015259	-0.058441	-0.013275	0.014038	0.09201	-0.11017	0.53055	0.040588	-0.20966	0.10223	-0.029907	0.004425	-0.25635	-0.55878	0.10315	0.041504	-0.061493	0.57358	0.52506	-0.10956	-0.031433	0.04837	0.44632	-0.14587	0.089111	-0.032806	0.065155	-0.005646	-0.21713	0.5159	0.002136	-0.022888
41.849	-0.009918	0.017853	-0.020447	0.00946	0.050201	-0.12131	0.4921	0.04776	-0.21301	0.16998	-0.1355	0.010376	0.4335	-0.383	0.024414	0.031128	-0.069275	0.47134	0.30121	-0.063629	-0.059204	0.07309	0.44434	-0.23361	-0.018768	-0.024261	0.058289	0.11368	-0.27222	0.29419	-0.000153	-0.023193
41.85	-0.000763	0.097961	0.019226	0.013733	-0.050812	-0.10086	0.4155	0.032654	-0.13367	0.33585	-0.13473	0.006104	0.34683	-0.079041	-0.027313	0.12329	-0.050964	0.42404	-0.4602	0.055695	-0.081177	0.081635	0.4158	-0.27878	-0.096741	-0.011749	0.053711	0.14862	0.24475	-0.4895	-0.000458	-0.017395
41.851	0.015106	0.13855	0.040741	-0.006714	-0.039673	-0.14404	0.37262	0.023346	-0.027466	0.27466	0.058746	-0.001373	-0.010223	0.25757	-0.003357	-0.057678	-0.067139	0.53833	-0.39429	0.21103	-0.071106	0.073547	0.31967	-0.056152	-0.022736	0.010529	0.046387	0.12344	0.53238	-0.14694	0.002747	-0.00885
41.852	0.040283	0.21378	-0.017548	-0.002289	0.043335	-0.10925	0.37079	0.028229	-0.029755	0.005798	0.3006	0.002136	-0.5661	0.3157	-0.05127	-0.095215	-0.054321	0.51483	-0.30273	0.11658	-0.070953	0.056915	0.0914	0.20966	0.19196	0.010986	0.041809	-0.091248	0.88455	0.73929	0.000763	0.002899
41.853	0.016479	0.3212	-0.044098	0.001678	0.048981	0.059052	0.37079	0.018463	-0.062256	-0.25559	0.34454	-0.007172	-0.38528	0.23514	-0.058899	0.26642	-0.059814	0.4837	0.025482	0.014191	-0.088501	0.045776	0.11841	0.22217	0.24185	0.011139	0.025177	-0.091858	0.69672	1.6443	0.001831	0.007324
41.854	0.013428	0.38071	-0.06424	0.010529	0.10437	0.15671	0.38666	0.022278	-0.079956	-0.41901	0.18921	0.008087	0.70908	0.20966	-0.17975	0.076294	-0.084839	0.44586	0.15106	0.001526	-0.13596	0.057373	0.098114	0.12543	0.10742	0.015106	0.028992	-0.089569	0.067749	1.2346	0	0.004425
41.855	0.001068	0.40558	-0.041809	0.002747	0.060577	0.23804	0.36087	0.007477	-0.072937	-0.38773	-0.020447	0.015259	0.81497	0.22903	-0.030212	-0.15579	-0.097961	0.42511	-0.28244	-0.054779	-0.14084	0.05188	-0.14206	0.27237	0.042419	0.002747	0.007172	-0.048676	-0.03952	0.63187	-0.002441	-0.005493
41.856	0.002747	0.42496	0.050812	0.00473	0.016937	0.25787	0.30884	-0.007477	-0.039215	-0.3183	-0.087585	0.020294	0.024719	0.23804	0.20523	-0.075073	-0.11276	0.41824	-0.15854	-0.056763	-0.16296	0.052185	-0.23483	0.13947	-0.079956	0.007477	-0.003357	-0.10407	0.33173	0.40543	0.000458	-0.008087
41.857	0.002747	0.47012	0.078888	0.012512	-0.000916	0.29098	0.29602	-0.015411	0.000305	-0.0737	-0.29465	0.019073	0.17166	0.15991	-0.03479	-0.033722	-0.068512	0.47623	-0.24231	-0.032196	-0.16708	0.026703	-0.089874	0.058441	-0.016937	0.019989	0.025635	-0.14206	0.042419	0.10284	0.002899	-0.012817
41.858	0.018005	0.41443	0.093079	0.00351	-0.0354	0.19501	0.2536	-0.022736	0.069122	0.019226	-0.38483	0.014343	0.31265	0.18906	0.012207	-0.006714	0.006714	0.42511	-0.37766	0.017242	-0.14297	-0.02182	0.15884	-0.20523	0.043182	0.032196	0.043488	-0.13718	-0.62759	-0.57129	0.001678	-0.010986
41.859	-0.004272	0.41718	0.018921	0.010529	-0.08194	0.11154	0.34439	-0.012665	-0.015259	0.097656	-0.25864	0.014801	0.020752	0.21347	-0.36194	-0.004425	0.041656	0.3508	-0.27878	-0.001221	-0.072021	-0.070343	0.2713	-0.28397	0.086975	0.029449	0.052948	-0.19638	-1.078	-0.88989	0.001984	-0.009003
41.86	-0.005951	0.43533	-0.043488	0.026703	-0.12009	-0.063019	0.38589	0.007629	-0.053558	0.030518	-0.10681	0.014801	-0.070343	0.20538	-0.50629	-0.001678	0.056763	0.32181	-0.26566	0.001221	0.008392	-0.10239	0.34363	-0.15335	0.068054	0.025024	0.057831	-0.032043	-1.1604	-0.22919	0.004272	-0.00824
41.861	-0.011902	0.43152	-0.021515	0.010986	-0.12756	-0.25253	0.34546	0.001221	-0.071411	-0.16586	0.13779	0.006409	0.26215	0.23239	-0.11887	-0.008545	0.083771	0.34225	-0.25955	0.031586	0.018005	-0.046234	0.29541	-0.10956	0.040283	-0.014648	0.094604	-0.17777	-0.87509	0.32761	0.002136	0
41.862	-0.004578	0.47638	-0.030365	-0.000305	-0.10284	-0.35721	0.31235	-0.002441	-0.0737	-0.19058	0.28686	-0.000916	0.345	0.10757	0.15106	-0.002747	0.11398	0.30853	-0.33646	0.053253	-0.053558	0.041199	0.25772	-0.12436	0.036316	-0.043182	0.12238	-0.26398	-0.42999	0.18295	0.000763	-0.013733
41.863	-0.008087	0.46616	0.011902	-0.005493	-0.12344	-0.42709	0.29556	0.005646	-0.045319	0.044556	0.030823	-0.001984	0.25375	-0.08316	-0.093079	0.003052	0.14542	0.29724	-0.41	-0.042114	-0.16586	0.065765	0.29938	-0.12985	0.028076	-0.061493	0.1294	0.27054	-0.23254	-0.14862	0.001678	-0.027618
41.864	0.001831	0.47028	0.015411	-0.006104	-0.14114	-0.18295	0.28976	0.008698	-0.029297	0.28549	-0.015106	0.005341	0.67749	-0.27115	-0.09613	-0.014191	0.17197	0.26154	-0.43854	-0.038605	-0.1091	0.044098	0.43213	-0.17334	-0.013123	-0.040588	0.047302	-0.053406	-0.1506	0.34042	-0.001831	-0.019684
41.865	0.016174	0.48904	0.033875	-0.001221	0.011139	0.025787	0.30395	0.013275	0.009308	0.020905	-0.002899	0.007629	0.48538	-0.41855	-0.048676	-0.016174	0.14954	0.24078	-0.4567	0.021362	-0.12665	0.095673	0.51956	-0.10376	-0.040283	-0.045624	-0.03418	-0.28732	0.54398	0.48508	-0.000305	-0.011292
41.866	0.018616	0.53223	0.006866	0.008392	0.15305	0.097961	0.2298	0.012512	0.035706	0.095062	-0.007477	0.009766	-0.18753	-0.36896	-0.007019	-0.025482	0.093079	0.17639	-0.39475	0.005188	-0.21225	0.13611	0.46661	0.046234	-0.039673	-0.042419	-0.070953	0.55542	0.7402	-0.004578	-0.005646	-0.020294
41.867	0.00351	0.51224	-0.1268	0.017548	0.12299	0.2272	0.24445	0.014801	-0.005188	0.59357	-0.003815	0.000763	-0.40329	0.041504	0.37369	-0.015564	0.048981	0.15945	-0.27939	0.045471	-0.13962	0.086975	0.40619	0.017853	0.011139	-0.032654	-0.048676	0.48279	0.24109	-0.44388	-0.000916	-0.003357
41.868	-0.007935	0.50339	-0.12116	0.049438	0.065002	0.11139	0.24368	0.009308	-0.027008	0.65155	-0.026855	0.004272	-0.65308	0.20737	0.58716	-0.027313	0.043945	0.062866	-0.81665	0.049133	-0.033875	0.04425	0.44693	0.04837	0.023804	-0.00061	-0.010223	0.099182	-0.18601	-0.17288	-0.002441	-0.002441
41.869	-0.010681	0.50903	-0.069275	0.030975	0.020752	-0.096283	0.16892	0.001526	-0.021667	-0.056152	-0.061493	0.013428	-0.87235	0.16464	0.071716	-0.003357	-0.012512	-0.008392	-0.72662	0.057678	-0.078735	-0.019836	0.5397	-0.032959	-0.011444	0.028229	-0.029297	-0.31357	0.59753	0.39902	0.006256	-0.003204
41.87	0.007782	0.51086	-0.009003	0.002594	-0.013428	-0.10712	0.089722	0.006104	-0.010223	-0.18585	-0.05661	0	-0.69275	0.1683	-0.002136	0.015564	-0.024567	-0.016327	-0.034332	-0.006409	-0.059662	-0.085602	0.49042	-0.13245	-0.054779	0.014648	-0.02655	-0.27161	0.75882	0.19562	0.000305	-0.016632
41.871	-0.000763	0.48874	-0.095978	-0.013275	-0.059204	-0.091858	0.018005	-0.001831	0.03418	-0.005798	0.027008	0.010376	-0.61249	-0.076294	-0.25528	0.008545	-0.008087	-0.021515	0.24017	-0.047455	-0.030975	-0.040588	0.3093	-0.0383	0.004883	0.014343	-0.039215	0.49362	0.72144	-0.022278	0.000458	-0.010681
41.872	-0.007935	0.47409	-0.14252	-0.008392	-0.10529	-0.15656	-0.025787	0.008545	0.053406	-0.086823	0.091705	0.007629	0.26016	-0.1442	-0.095825	0.001221	-0.03952	-0.12177	-0.18021	-0.031738	-0.070038	0.02182	0.1442	-0.022888	0.062256	-0.002441	-0.042419	0.23987	0.46249	0.61157	0.002594	-0.003052
41.873	-0.003815	0.53421	-0.063019	0.007935	-0.12299	-0.15961	-0.082092	0.003662	0.065002	-0.090637	0.066071	0.002289	0.57785	-0.18005	0.012512	-0.022125	-0.031738	-0.16098	-0.078278	-0.033112	-0.25192	0.002136	0.2803	-0.12177	0.035706	-0.028687	0.005341	-0.39352	0.10788	0.19302	-0.000458	-0.012817
41.874	0.002289	0.60867	0.12085	0.011444	-0.10162	-0.29129	-0.10727	0.002747	0.074768	-0.094299	0.077209	-0.002594	0.36224	-0.24124	0.050812	-0.022888	-0.03479	-0.18509	0.000305	0.005341	-0.39825	0.001526	0.42328	-0.17136	-0.000916	-0.009003	0.006409	0.26489	0.22949	-0.099945	0.00061	-0.005188
41.875	0.017853	0.57526	0.10635	0.002289	-0.064697	-0.34683	-0.10239	0.005646	0.055084	-0.19073	0.081482	-0.013733	0.24551	-0.27573	0.031281	-0.02655	-0.028076	-0.26032	-0.31555	0.039673	-0.31311	0.075378	0.41275	-0.065918	-0.030212	0.007324	-0.002899	-0.041351	0.16617	-0.13886	-0.000153	-0.004272
41.876	0.032654	0.5748	0.070648	0.002289	-0.02243	-0.12833	-0.10254	0.013428	-0.041809	-0.44922	0.033417	-0.015869	0.15732	-0.44617	-0.006561	-0.00473	-0.066223	-0.28412	-0.50858	-0.026855	0.22446	0.074615	0.3009	-0.034943	-0.036469	0.009613	0.048523	-0.13397	-0.14282	0.071106	0.00061	-0.016937
